<svg width="945" height="275" viewBox="0 0 945 275" fill="none" xmlns="http://www.w3.org/2000/svg">
<path d="M13.0586 275H0.799869L0 0H12.2458L13.0586 275Z" fill="#020FEA"/>
<path d="M65.8086 275H43.6098C73.4629 180.59 73.2436 88.9273 43.3904 0H65.5764C91.2238 93.1718 92.1785 184.886 65.8215 275H65.8086Z" fill="#020FEA"/>
<path d="M124.483 275H98.3461C150.428 183.338 150.634 91.6624 98.9008 0H125.231C176.255 91.6624 176.01 183.338 124.47 275H124.483Z" fill="#020FEA"/>
<path d="M189.62 275H152.323C226.208 179.338 226.931 87.663 154.168 0H191.335C258.37 82.0252 257.815 173.688 189.633 275H189.62Z" fill="#020FEA"/>
<path d="M874.719 80.976C898.058 80.976 915.385 86.8842 926.794 98.5873C938.488 110.281 943.82 126.717 943.82 147.141V240.018H907.182V222.313C896.436 234.165 880.508 243.246 857.694 243.246C842.988 243.246 828.959 239.089 818.583 230.886C808.183 222.663 801.509 210.414 801.509 194.401V193.813C801.509 176.638 808.249 163.853 819.863 155.396C831.432 146.972 847.739 142.913 866.793 142.912C883.892 142.912 895.788 145.391 907.476 149.011V146.554C907.476 135.607 904.171 127.477 897.95 122.064C891.704 116.63 882.363 113.797 870.023 113.797C852.587 113.797 840.1 117.567 826.083 123.407L825.103 123.816L824.754 122.812L815.067 94.9261L814.76 94.0424L815.622 93.6771C833.019 86.3051 849.887 80.976 874.719 80.976ZM873.838 167.514C862.358 167.514 853.491 169.843 847.522 174.081C841.6 178.287 838.44 184.433 838.44 192.346V192.933C838.44 200.093 841.513 205.669 846.659 209.485C851.835 213.323 859.165 215.415 867.674 215.415C890.847 215.415 908.063 202.44 908.063 183.246V173.368C899.156 170.012 887.477 167.514 873.838 167.514Z" fill="#01054E" stroke="#01054E" stroke-width="2"/>
<path d="M702.76 83.0311L703.058 83.4667L737.756 134.224L773.035 83.4608L773.333 83.0311H813.675L812.533 84.6161L758.356 159.764L814.882 238.434L816.02 240.018H774.799L774.5 239.587L737.166 185.596L700.122 239.584L699.824 240.018H659.483L660.619 238.435L716.852 160.057L662.673 84.6141L661.537 83.0311H702.76Z" fill="#01054E" stroke="#01054E" stroke-width="2"/>
<path d="M606.197 79.803C654.591 79.803 689.681 116.351 689.681 161.232V161.819C689.681 206.112 654.004 243.541 605.61 243.541C557.806 243.541 522.42 206.996 522.42 162.406V161.819C522.42 116.94 558.095 79.803 606.197 79.803ZM605.61 112.918C577.781 112.918 559.938 134.683 559.937 161.232V161.819C559.937 188.34 579.517 210.427 606.197 210.427C634.618 210.427 652.163 188.657 652.163 162.406V161.819C652.163 135 632.874 112.918 605.61 112.918Z" fill="#01054E" stroke="#01054E" stroke-width="2"/>
<path d="M414.718 32.543C479.801 32.5431 524.913 77.2691 524.913 135.693V136.28C524.913 194.697 479.809 240.018 414.718 240.019H337.104V32.543H414.718ZM375.21 205.143H414.718C436.062 205.143 453.631 197.959 465.86 185.874C478.09 173.789 485.047 156.736 485.047 136.868V136.28C485.047 116.412 478.089 99.2095 465.856 86.9766C453.625 74.7452 436.056 67.419 414.718 67.4189H375.21V205.143Z" fill="#01054E" stroke="#01054E" stroke-width="2"/>
</svg>
