<svg width="242" height="275" viewBox="0 0 242 275" fill="none" xmlns="http://www.w3.org/2000/svg">
<path d="M13.0586 275H0.799869L0 0H12.2458L13.0586 275Z" fill="#020FEA"/>
<path d="M65.8085 275H43.6097C73.4629 180.59 73.2435 88.9273 43.3904 0H65.5763C91.2237 93.1718 92.1784 184.886 65.8214 275H65.8085Z" fill="#020FEA"/>
<path d="M124.483 275H98.3459C150.428 183.338 150.634 91.6624 98.9007 0H125.231C176.255 91.6624 176.01 183.338 124.47 275H124.483Z" fill="#020FEA"/>
<path d="M189.62 275H152.323C226.208 179.338 226.93 87.663 154.168 0H191.335C258.37 82.0252 257.815 173.688 189.632 275H189.62Z" fill="#020FEA"/>
</svg>
